<?xml version="1.0" encoding="UTF-8" standalone="no"?>
<!-- Created with Inkscape (http://www.inkscape.org/) -->

<svg
   width="9.0707636mm"
   height="9.0707321mm"
   viewBox="0 0 9.0707636 9.0707321"
   version="1.1"
   id="svg1"
   xml:space="preserve"
   inkscape:version="1.3.2 (1:1.3.2+202404261509+091e20ef0f)"
   sodipodi:docname="logo.svg"
   xmlns:inkscape="http://www.inkscape.org/namespaces/inkscape"
   xmlns:sodipodi="http://sodipodi.sourceforge.net/DTD/sodipodi-0.dtd"
   xmlns="http://www.w3.org/2000/svg"
   xmlns:svg="http://www.w3.org/2000/svg"><sodipodi:namedview
     id="namedview1"
     pagecolor="#ffffff"
     bordercolor="#cccccc"
     borderopacity="1"
     inkscape:showpageshadow="0"
     inkscape:pageopacity="1"
     inkscape:pagecheckerboard="0"
     inkscape:deskcolor="#d1d1d1"
     inkscape:document-units="mm"
     inkscape:zoom="0.84653323"
     inkscape:cx="-538.66757"
     inkscape:cy="791.46332"
     inkscape:window-width="1920"
     inkscape:window-height="1015"
     inkscape:window-x="0"
     inkscape:window-y="0"
     inkscape:window-maximized="1"
     inkscape:current-layer="g1" /><defs
     id="defs1" /><g
     inkscape:label="Layer 1"
     inkscape:groupmode="layer"
     id="layer1"
     transform="translate(280.89387,-196.45828)"><g
       id="g1"
       transform="translate(-25.172204,-4.4442869)"
       inkscape:groupmode="layer"><g
         id="g7"><rect
           style="fill:#0d0d0d;fill-opacity:1;fill-rule:evenodd;stroke:#f91af9;stroke-width:0.508243;stroke-opacity:0"
           id="rect2-9-0"
           width="8.5624914"
           height="8.5624914"
           x="-255.46753"
           y="201.15668"
           rx="2.7053633"
           ry="2.5378139" /><path
           id="rect2-9"
           style="fill:#ffffff;fill-opacity:1;fill-rule:evenodd;stroke:#f91af9;stroke-width:0.419949;stroke-opacity:0"
           d="m -251.32535,202.63695 c -0.67677,0 -1.26846,0.22662 -1.77456,0.67976 -0.50612,0.44726 -0.75876,0.97414 -0.75876,1.58029 0,0.42372 0.12919,0.77955 0.38813,1.06791 0.26482,0.28836 0.58845,0.43253 0.97097,0.43253 h 0.10592 l 0.12383,-0.0176 c 0.24128,-0.0412 0.46792,-0.12938 0.67977,-0.26473 0.21774,-0.14125 0.35576,-0.29159 0.4146,-0.45048 l 0.0179,-0.0704 c 0.006,-0.0236 0.009,-0.0473 0.009,-0.0709 0,-0.0413 -0.0149,-0.0765 -0.0444,-0.10592 -0.0236,-0.0353 -0.0526,-0.0498 -0.088,-0.0439 -0.006,0 -0.0178,0.003 -0.0354,0.009 -0.0177,0 -0.0415,0.006 -0.0709,0.0175 -0.0177,0.006 -0.0353,0.009 -0.053,0.009 h -0.035 c -0.0823,0 -0.15337,-0.0265 -0.21222,-0.0794 -0.053,-0.053 -0.079,-0.12086 -0.079,-0.20325 0,-0.10003 0.0409,-0.18515 0.1234,-0.25577 0.0823,-0.0707 0.17939,-0.10592 0.2912,-0.10592 0.17067,0 0.30912,0.0762 0.41504,0.2293 0.10592,0.14712 0.15885,0.34112 0.15885,0.58241 0,0.14123 -0.0177,0.30614 -0.053,0.49445 -0.0294,0.18243 -0.0709,0.37378 -0.12384,0.57388 -0.0588,0.20597 -0.1263,0.40922 -0.20281,0.60931 -0.0765,0.1942 -0.15586,0.36175 -0.23825,0.50299 l -0.0883,0.14134 -0.0794,0.14986 -0.0883,0.15031 c -0.008,0.0141 -0.0148,0.0273 -0.0222,0.0409 h 0.92528 c 0.69253,0 1.3088,-0.29264 1.71821,-0.75363 0.003,-0.005 0.007,-0.007 0.009,-0.0116 0.0515,-0.0627 0.10268,-0.1287 0.1533,-0.19641 0.22411,-0.32691 0.3544,-0.71663 0.3544,-1.13581 v -1.35824 c -0.0453,0.16754 -0.10246,0.33735 -0.17251,0.50982 -0.0353,0.0941 -0.0732,0.18543 -0.11448,0.2737 -0.0353,0.0882 -0.0768,0.17645 -0.12382,0.26474 -0.0177,0.0353 -0.0354,0.0679 -0.053,0.0974 -0.0177,0.0294 -0.0353,0.0615 -0.053,0.0969 -0.15888,0.27659 -0.32378,0.51511 -0.49445,0.7152 -0.16478,0.2001 -0.35878,0.3822 -0.58242,0.54698 0.22364,-0.39429 0.39735,-0.7532 0.52093,-1.07687 0.12946,-0.32367 0.21457,-0.63849 0.25577,-0.94451 0.0177,-0.0941 0.0296,-0.18808 0.0355,-0.28224 0.006,-0.10003 0.009,-0.20013 0.009,-0.30017 0,-0.61203 -0.18826,-1.1063 -0.5649,-1.48293 -0.37075,-0.37663 -0.86236,-0.56533 -1.4744,-0.56533 z" /></g></g></g><style
     id="style1">
        path { fill: #000; }
        @media (prefers-color-scheme: dark) {
            path { fill: #FFF; }
        }
    </style></svg>
